G04 EAGLE Gerber RS-274X export*
G75*
%MOMM*%
%FSLAX34Y34*%
%LPD*%
%IN*%
%IPPOS*%
%AMOC8*
5,1,8,0,0,1.08239X$1,22.5*%
G01*
%ADD10C,0.254000*%


D10*
X-25400Y393700D02*
X685600Y393700D01*
X685600Y1012700D01*
X-25400Y1012700D01*
X-25400Y393700D01*
X41400Y443976D02*
X41332Y442931D01*
X41195Y441892D01*
X40990Y440865D01*
X40719Y439853D01*
X40383Y438861D01*
X39982Y437893D01*
X39518Y436954D01*
X38995Y436046D01*
X38413Y435175D01*
X37775Y434344D01*
X37084Y433557D01*
X36343Y432816D01*
X35556Y432125D01*
X34725Y431488D01*
X33854Y430906D01*
X32946Y430382D01*
X32007Y429918D01*
X31039Y429517D01*
X30047Y429181D01*
X29035Y428910D01*
X28008Y428705D01*
X26969Y428569D01*
X25924Y428500D01*
X24876Y428500D01*
X23831Y428569D01*
X22792Y428705D01*
X21765Y428910D01*
X20753Y429181D01*
X19761Y429517D01*
X18793Y429918D01*
X17854Y430382D01*
X16946Y430906D01*
X16075Y431488D01*
X15244Y432125D01*
X14457Y432816D01*
X13716Y433557D01*
X13025Y434344D01*
X12388Y435175D01*
X11806Y436046D01*
X11282Y436954D01*
X10818Y437893D01*
X10417Y438861D01*
X10081Y439853D01*
X9810Y440865D01*
X9605Y441892D01*
X9469Y442931D01*
X9400Y443976D01*
X9400Y445024D01*
X9469Y446069D01*
X9605Y447108D01*
X9810Y448135D01*
X10081Y449147D01*
X10417Y450139D01*
X10818Y451107D01*
X11282Y452046D01*
X11806Y452954D01*
X12388Y453825D01*
X13025Y454656D01*
X13716Y455443D01*
X14457Y456184D01*
X15244Y456875D01*
X16075Y457513D01*
X16946Y458095D01*
X17854Y458618D01*
X18793Y459082D01*
X19761Y459483D01*
X20753Y459819D01*
X21765Y460090D01*
X22792Y460295D01*
X23831Y460432D01*
X24876Y460500D01*
X25924Y460500D01*
X26969Y460432D01*
X28008Y460295D01*
X29035Y460090D01*
X30047Y459819D01*
X31039Y459483D01*
X32007Y459082D01*
X32946Y458618D01*
X33854Y458095D01*
X34725Y457513D01*
X35556Y456875D01*
X36343Y456184D01*
X37084Y455443D01*
X37775Y454656D01*
X38413Y453825D01*
X38995Y452954D01*
X39518Y452046D01*
X39982Y451107D01*
X40383Y450139D01*
X40719Y449147D01*
X40990Y448135D01*
X41195Y447108D01*
X41332Y446069D01*
X41400Y445024D01*
X41400Y443976D01*
X651000Y964676D02*
X650932Y963631D01*
X650795Y962592D01*
X650590Y961565D01*
X650319Y960553D01*
X649983Y959561D01*
X649582Y958593D01*
X649118Y957654D01*
X648595Y956746D01*
X648013Y955875D01*
X647375Y955044D01*
X646684Y954257D01*
X645943Y953516D01*
X645156Y952825D01*
X644325Y952188D01*
X643454Y951606D01*
X642546Y951082D01*
X641607Y950618D01*
X640639Y950217D01*
X639647Y949881D01*
X638635Y949610D01*
X637608Y949405D01*
X636569Y949269D01*
X635524Y949200D01*
X634476Y949200D01*
X633431Y949269D01*
X632392Y949405D01*
X631365Y949610D01*
X630353Y949881D01*
X629361Y950217D01*
X628393Y950618D01*
X627454Y951082D01*
X626546Y951606D01*
X625675Y952188D01*
X624844Y952825D01*
X624057Y953516D01*
X623316Y954257D01*
X622625Y955044D01*
X621988Y955875D01*
X621406Y956746D01*
X620882Y957654D01*
X620418Y958593D01*
X620017Y959561D01*
X619681Y960553D01*
X619410Y961565D01*
X619205Y962592D01*
X619069Y963631D01*
X619000Y964676D01*
X619000Y965724D01*
X619069Y966769D01*
X619205Y967808D01*
X619410Y968835D01*
X619681Y969847D01*
X620017Y970839D01*
X620418Y971807D01*
X620882Y972746D01*
X621406Y973654D01*
X621988Y974525D01*
X622625Y975356D01*
X623316Y976143D01*
X624057Y976884D01*
X624844Y977575D01*
X625675Y978213D01*
X626546Y978795D01*
X627454Y979318D01*
X628393Y979782D01*
X629361Y980183D01*
X630353Y980519D01*
X631365Y980790D01*
X632392Y980995D01*
X633431Y981132D01*
X634476Y981200D01*
X635524Y981200D01*
X636569Y981132D01*
X637608Y980995D01*
X638635Y980790D01*
X639647Y980519D01*
X640639Y980183D01*
X641607Y979782D01*
X642546Y979318D01*
X643454Y978795D01*
X644325Y978213D01*
X645156Y977575D01*
X645943Y976884D01*
X646684Y976143D01*
X647375Y975356D01*
X648013Y974525D01*
X648595Y973654D01*
X649118Y972746D01*
X649582Y971807D01*
X649983Y970839D01*
X650319Y969847D01*
X650590Y968835D01*
X650795Y967808D01*
X650932Y966769D01*
X651000Y965724D01*
X651000Y964676D01*
X651000Y443976D02*
X650932Y442931D01*
X650795Y441892D01*
X650590Y440865D01*
X650319Y439853D01*
X649983Y438861D01*
X649582Y437893D01*
X649118Y436954D01*
X648595Y436046D01*
X648013Y435175D01*
X647375Y434344D01*
X646684Y433557D01*
X645943Y432816D01*
X645156Y432125D01*
X644325Y431488D01*
X643454Y430906D01*
X642546Y430382D01*
X641607Y429918D01*
X640639Y429517D01*
X639647Y429181D01*
X638635Y428910D01*
X637608Y428705D01*
X636569Y428569D01*
X635524Y428500D01*
X634476Y428500D01*
X633431Y428569D01*
X632392Y428705D01*
X631365Y428910D01*
X630353Y429181D01*
X629361Y429517D01*
X628393Y429918D01*
X627454Y430382D01*
X626546Y430906D01*
X625675Y431488D01*
X624844Y432125D01*
X624057Y432816D01*
X623316Y433557D01*
X622625Y434344D01*
X621988Y435175D01*
X621406Y436046D01*
X620882Y436954D01*
X620418Y437893D01*
X620017Y438861D01*
X619681Y439853D01*
X619410Y440865D01*
X619205Y441892D01*
X619069Y442931D01*
X619000Y443976D01*
X619000Y445024D01*
X619069Y446069D01*
X619205Y447108D01*
X619410Y448135D01*
X619681Y449147D01*
X620017Y450139D01*
X620418Y451107D01*
X620882Y452046D01*
X621406Y452954D01*
X621988Y453825D01*
X622625Y454656D01*
X623316Y455443D01*
X624057Y456184D01*
X624844Y456875D01*
X625675Y457513D01*
X626546Y458095D01*
X627454Y458618D01*
X628393Y459082D01*
X629361Y459483D01*
X630353Y459819D01*
X631365Y460090D01*
X632392Y460295D01*
X633431Y460432D01*
X634476Y460500D01*
X635524Y460500D01*
X636569Y460432D01*
X637608Y460295D01*
X638635Y460090D01*
X639647Y459819D01*
X640639Y459483D01*
X641607Y459082D01*
X642546Y458618D01*
X643454Y458095D01*
X644325Y457513D01*
X645156Y456875D01*
X645943Y456184D01*
X646684Y455443D01*
X647375Y454656D01*
X648013Y453825D01*
X648595Y452954D01*
X649118Y452046D01*
X649582Y451107D01*
X649983Y450139D01*
X650319Y449147D01*
X650590Y448135D01*
X650795Y447108D01*
X650932Y446069D01*
X651000Y445024D01*
X651000Y443976D01*
X41400Y964676D02*
X41332Y963631D01*
X41195Y962592D01*
X40990Y961565D01*
X40719Y960553D01*
X40383Y959561D01*
X39982Y958593D01*
X39518Y957654D01*
X38995Y956746D01*
X38413Y955875D01*
X37775Y955044D01*
X37084Y954257D01*
X36343Y953516D01*
X35556Y952825D01*
X34725Y952188D01*
X33854Y951606D01*
X32946Y951082D01*
X32007Y950618D01*
X31039Y950217D01*
X30047Y949881D01*
X29035Y949610D01*
X28008Y949405D01*
X26969Y949269D01*
X25924Y949200D01*
X24876Y949200D01*
X23831Y949269D01*
X22792Y949405D01*
X21765Y949610D01*
X20753Y949881D01*
X19761Y950217D01*
X18793Y950618D01*
X17854Y951082D01*
X16946Y951606D01*
X16075Y952188D01*
X15244Y952825D01*
X14457Y953516D01*
X13716Y954257D01*
X13025Y955044D01*
X12388Y955875D01*
X11806Y956746D01*
X11282Y957654D01*
X10818Y958593D01*
X10417Y959561D01*
X10081Y960553D01*
X9810Y961565D01*
X9605Y962592D01*
X9469Y963631D01*
X9400Y964676D01*
X9400Y965724D01*
X9469Y966769D01*
X9605Y967808D01*
X9810Y968835D01*
X10081Y969847D01*
X10417Y970839D01*
X10818Y971807D01*
X11282Y972746D01*
X11806Y973654D01*
X12388Y974525D01*
X13025Y975356D01*
X13716Y976143D01*
X14457Y976884D01*
X15244Y977575D01*
X16075Y978213D01*
X16946Y978795D01*
X17854Y979318D01*
X18793Y979782D01*
X19761Y980183D01*
X20753Y980519D01*
X21765Y980790D01*
X22792Y980995D01*
X23831Y981132D01*
X24876Y981200D01*
X25924Y981200D01*
X26969Y981132D01*
X28008Y980995D01*
X29035Y980790D01*
X30047Y980519D01*
X31039Y980183D01*
X32007Y979782D01*
X32946Y979318D01*
X33854Y978795D01*
X34725Y978213D01*
X35556Y977575D01*
X36343Y976884D01*
X37084Y976143D01*
X37775Y975356D01*
X38413Y974525D01*
X38995Y973654D01*
X39518Y972746D01*
X39982Y971807D01*
X40383Y970839D01*
X40719Y969847D01*
X40990Y968835D01*
X41195Y967808D01*
X41332Y966769D01*
X41400Y965724D01*
X41400Y964676D01*
M02*
