G04 EAGLE Gerber RS-274X export*
G75*
%MOMM*%
%FSLAX34Y34*%
%LPD*%
%INSoldermask Bottom*%
%IPPOS*%
%AMOC8*
5,1,8,0,0,1.08239X$1,22.5*%
G01*
%ADD10R,2.303200X2.303200*%
%ADD11C,2.303200*%
%ADD12C,3.403200*%
%ADD13P,1.869504X8X112.500000*%
%ADD14C,1.711200*%
%ADD15C,1.727200*%
%ADD16R,2.018200X2.018200*%
%ADD17C,2.018200*%
%ADD18R,2.113200X2.113200*%
%ADD19C,2.113200*%
%ADD20C,0.959600*%


D10*
X177400Y952500D03*
D11*
X127400Y952500D03*
D10*
X343300Y482600D03*
D11*
X393300Y482600D03*
D12*
X25400Y444500D03*
X635000Y965200D03*
X635000Y444500D03*
X25400Y965200D03*
D13*
X596900Y711200D03*
X596900Y736600D03*
X596900Y762000D03*
X596900Y787400D03*
X596900Y812800D03*
X596900Y838200D03*
X571500Y711200D03*
X571500Y736600D03*
X571500Y762000D03*
X571500Y787400D03*
X571500Y812800D03*
X571500Y838200D03*
X596900Y863600D03*
X596900Y889000D03*
X571500Y863600D03*
X571500Y889000D03*
D14*
X502840Y736600D02*
X487760Y736600D01*
X487760Y762000D02*
X502840Y762000D01*
X502840Y787400D02*
X487760Y787400D01*
X487760Y812800D02*
X502840Y812800D01*
D15*
X431800Y762000D03*
X431800Y736600D03*
X431800Y711200D03*
X431800Y685800D03*
X431800Y660400D03*
X431800Y635000D03*
X431800Y787400D03*
X431800Y812800D03*
X431800Y838200D03*
X431800Y863600D03*
X431800Y889000D03*
X431800Y914400D03*
X431800Y939800D03*
X431800Y609600D03*
X431800Y584200D03*
X279400Y762000D03*
X279400Y787400D03*
X279400Y812800D03*
X279400Y838200D03*
X279400Y863600D03*
X279400Y889000D03*
X279400Y736600D03*
X279400Y711200D03*
X279400Y685800D03*
X279400Y660400D03*
X279400Y635000D03*
X279400Y609600D03*
X279400Y584200D03*
X279400Y914400D03*
X279400Y939800D03*
D10*
X114700Y482600D03*
D11*
X164700Y482600D03*
D10*
X229000Y482600D03*
D11*
X279000Y482600D03*
D16*
X495300Y901700D03*
D17*
X495300Y927100D03*
X495300Y952500D03*
D14*
X576660Y622300D02*
X591740Y622300D01*
X591740Y647700D02*
X576660Y647700D01*
X576660Y673100D02*
X591740Y673100D01*
X502840Y558800D02*
X487760Y558800D01*
X487760Y584200D02*
X502840Y584200D01*
X502840Y609600D02*
X487760Y609600D01*
X487760Y647700D02*
X502840Y647700D01*
X502840Y673100D02*
X487760Y673100D01*
X487760Y698500D02*
X502840Y698500D01*
X477440Y444500D02*
X462360Y444500D01*
X462360Y469900D02*
X477440Y469900D01*
X477440Y495300D02*
X462360Y495300D01*
X462360Y520700D02*
X477440Y520700D01*
D18*
X50800Y800100D03*
D19*
X50800Y825600D03*
X50800Y851100D03*
D14*
X190500Y845740D02*
X190500Y830660D01*
X215900Y830660D02*
X215900Y845740D01*
D20*
X88900Y787400D03*
X190500Y812800D03*
X139700Y495300D03*
X76200Y812800D03*
X74422Y657098D03*
X25400Y762000D03*
X244602Y601472D03*
X25400Y889000D03*
X127000Y838200D03*
X368300Y558800D03*
X101600Y609600D03*
X317500Y787400D03*
X254000Y698500D03*
X254000Y571500D03*
X215900Y800100D03*
X215900Y762000D03*
X101600Y711200D03*
X127000Y800100D03*
X393700Y711200D03*
X127000Y660400D03*
X127000Y546100D03*
X254000Y673100D03*
X292100Y673100D03*
X152400Y635000D03*
X101600Y596900D03*
X63500Y520700D03*
X114300Y749300D03*
X330200Y787400D03*
X152400Y863600D03*
X203200Y800100D03*
X152400Y840486D03*
X406400Y762000D03*
X381000Y723900D03*
X546100Y558800D03*
X457200Y977900D03*
X406400Y876300D03*
X444500Y850900D03*
X469900Y825500D03*
X304800Y800100D03*
X342900Y825500D03*
X317500Y850900D03*
X393700Y723900D03*
X469900Y711200D03*
X495300Y838200D03*
X457200Y698500D03*
X292100Y571500D03*
X241300Y977900D03*
X254000Y914400D03*
X292100Y800100D03*
X254000Y711200D03*
X393700Y901700D03*
X393700Y876300D03*
X368300Y850900D03*
X406400Y787400D03*
X342900Y749300D03*
X342900Y508000D03*
X431800Y469900D03*
X381000Y901700D03*
X381000Y876300D03*
X355600Y838200D03*
X393700Y787400D03*
X330200Y762000D03*
X330200Y546100D03*
X431800Y495300D03*
X546100Y774700D03*
X419100Y825500D03*
X368300Y800100D03*
X355600Y812800D03*
X330200Y800100D03*
X304800Y863600D03*
X558800Y749300D03*
X76200Y749300D03*
X147574Y736092D03*
X147701Y725678D03*
X148082Y715518D03*
X214503Y686816D03*
X225171Y686435D03*
X147828Y686562D03*
X137541Y686562D03*
X125984Y686181D03*
X148717Y598297D03*
X148971Y587375D03*
X148971Y576961D03*
X149225Y549656D03*
X143510Y538861D03*
X153797Y538861D03*
X165481Y538353D03*
X176911Y538607D03*
X187579Y538861D03*
X197739Y538607D03*
X208026Y538607D03*
X218440Y538607D03*
X229362Y538099D03*
X231648Y548386D03*
X221107Y548640D03*
X126238Y674370D03*
X137414Y674243D03*
X148590Y674497D03*
X160020Y674751D03*
X170815Y674751D03*
X181356Y674751D03*
X243078Y584454D03*
X243078Y573913D03*
M02*
