G04 EAGLE Gerber RS-274X export*
G75*
%MOMM*%
%FSLAX34Y34*%
%LPD*%
%INSolderpaste Top*%
%IPPOS*%
%AMOC8*
5,1,8,0,0,1.08239X$1,22.5*%
G01*
%ADD10R,1.000000X1.100000*%
%ADD11R,3.200000X1.600000*%
%ADD12R,1.100000X1.000000*%
%ADD13R,1.750000X0.650000*%
%ADD14R,4.300000X7.900000*%
%ADD15R,1.200000X1.200000*%


D10*
X101600Y867800D03*
X101600Y884800D03*
X114300Y639200D03*
X114300Y656200D03*
X114300Y778900D03*
X114300Y795900D03*
X228600Y778900D03*
X228600Y795900D03*
D11*
X25800Y596900D03*
X75800Y596900D03*
D12*
X105800Y825500D03*
X122800Y825500D03*
D11*
X25800Y698500D03*
X75800Y698500D03*
D12*
X42300Y749300D03*
X59300Y749300D03*
X42300Y647700D03*
X59300Y647700D03*
D10*
X254000Y766200D03*
X254000Y783200D03*
D12*
X59300Y546100D03*
X42300Y546100D03*
D10*
X228600Y656200D03*
X228600Y639200D03*
D13*
X129800Y748900D03*
X129800Y738900D03*
X129800Y728900D03*
X129800Y718900D03*
X129800Y708900D03*
X129800Y698900D03*
X225800Y698900D03*
X225800Y708900D03*
X225800Y718900D03*
X225800Y728900D03*
X225800Y738900D03*
X225800Y748900D03*
D14*
X177800Y723900D03*
D13*
X129800Y609200D03*
X129800Y599200D03*
X129800Y589200D03*
X129800Y579200D03*
X129800Y569200D03*
X129800Y559200D03*
X225800Y559200D03*
X225800Y569200D03*
X225800Y579200D03*
X225800Y589200D03*
X225800Y599200D03*
X225800Y609200D03*
D14*
X177800Y584200D03*
D15*
X141900Y787400D03*
X162900Y787400D03*
X141900Y647700D03*
X162900Y647700D03*
D12*
X139700Y884800D03*
X139700Y867800D03*
D10*
X143900Y825500D03*
X160900Y825500D03*
D12*
X190500Y778900D03*
X190500Y795900D03*
D10*
X474100Y850900D03*
X491100Y850900D03*
D12*
X194437Y639073D03*
X194437Y656073D03*
M02*
