M48
;GenerationSoftware,Autodesk,EAGLE,9.6.2*%
;CreationDate,2024-08-22T13:32:07Z*%
FMAT,2
ICI,OFF
METRIC,TZ,000.000
T7C0.350
T6C1.000
T5C1.016
T4C1.210
T3C1.270
T2C1.400
T1C3.200
%
G90
M71
T1
X2540Y44450
X63500Y96520
X63500Y44450
X2540Y96520
T2
X11470Y48260
X16470Y48260
X17740Y95250
X12740Y95250
X34330Y48260
X39330Y48260
X27900Y48260
X22900Y48260
T3
X5080Y80010
X5080Y82560
X5080Y85110
T4
X49530Y90170
X49530Y92710
X49530Y95250
T5
X59690Y78740
X59690Y81280
X57150Y71120
X57150Y73660
X57150Y76200
X57150Y78740
X57150Y81280
X57150Y83820
X59690Y86360
X59690Y88900
X57150Y86360
X57150Y88900
X43180Y76200
X43180Y73660
X43180Y71120
X43180Y68580
X43180Y66040
X43180Y63500
X43180Y78740
X43180Y81280
X43180Y86360
X43180Y88900
X43180Y91440
X43180Y93980
X43180Y60960
X43180Y58420
X27940Y76200
X27940Y78740
X27940Y81280
X27940Y83820
X27940Y86360
X27940Y88900
X27940Y73660
X27940Y71120
X27940Y68580
X27940Y66040
X27940Y63500
X27940Y60960
X27940Y58420
X27940Y91440
X27940Y93980
X59690Y83820
X43180Y83820
X59690Y71120
X59690Y73660
X59690Y76200
T6
X49530Y78740
X58420Y62230
X58420Y64770
X58420Y67310
X49530Y55880
X49530Y58420
X49530Y60960
X49530Y64770
X49530Y67310
X49530Y69850
X46990Y44450
X46990Y46990
X46990Y49530
X46990Y52070
X49530Y76200
X49530Y73660
X49530Y81280
X19050Y83820
X21590Y83820
T7
X14922Y54966
X14351Y53886
X15380Y53886
X16548Y53835
X17691Y53861
X18758Y53886
X19774Y53861
X20803Y53861
X21844Y53861
X22936Y53810
X15240Y63500
X22111Y54864
X12624Y67437
X13741Y67424
X14859Y67450
X16002Y67475
X17082Y67475
X18136Y67475
X24308Y58445
X24308Y57391
X8890Y78740
X19050Y81280
X13970Y49530
X7620Y81280
X7442Y65710
X2540Y76200
X24460Y60147
X2540Y88900
X12700Y83820
X36830Y55880
X10160Y60960
X31750Y78740
X25400Y69850
X23165Y54839
X25400Y57150
X21590Y80010
X21590Y76200
X10160Y71120
X12700Y80010
X39370Y71120
X12700Y66040
X12700Y54610
X25400Y67310
X29210Y67310
X10160Y59690
X6350Y52070
X11430Y74930
X33020Y78740
X15240Y86360
X20320Y80010
X15240Y84049
X40640Y76200
X38100Y72390
X54610Y55880
X45720Y97790
X40640Y87630
X44450Y85090
X46990Y82550
X30480Y80010
X34290Y82550
X31750Y85090
X39370Y72390
X46990Y71120
X49530Y83820
X45720Y69850
X29210Y57150
X24130Y97790
X25400Y91440
X29210Y80010
X25400Y71120
X39370Y90170
X39370Y87630
X36830Y85090
X40640Y78740
X34290Y74930
X34290Y50800
X43180Y46990
X38100Y90170
X38100Y87630
X55880Y74930
X35560Y83820
X39370Y78740
X33020Y76200
X33020Y54610
X43180Y49530
X54610Y77470
X41910Y82550
X36830Y80010
X35560Y81280
X33020Y80010
X30480Y86360
X7620Y74930
X14757Y73609
X14770Y72568
X14808Y71552
X21450Y68682
X22517Y68644
X14783Y68656
X13754Y68656
X12598Y68618
X14872Y59830
X14897Y58737
X14897Y57696
M30